<?xml version="1.0" standalone="no"?>
<!DOCTYPE svg PUBLIC "-//W3C//DTD SVG 20010904//EN"
 "http://www.w3.org/TR/2001/REC-SVG-20010904/DTD/svg10.dtd">
<svg version="1.0" xmlns="http://www.w3.org/2000/svg"
 width="500.000000pt" height="500.000000pt" viewBox="0 0 500.000000 500.000000"
 preserveAspectRatio="xMidYMid meet">

<g transform="translate(0.000000,500.000000) scale(0.100000,-0.100000)"
fill="#000000" stroke="none">
<path d="M1032 2783 l3 -178 48 -3 47 -3 0 44 c0 33 6 49 23 65 13 12 26 22
29 22 3 0 25 -29 48 -65 l42 -65 50 0 c56 0 56 -6 -12 88 -25 35 -53 76 -62
90 l-17 27 65 78 65 77 -55 0 c-53 0 -55 -1 -89 -47 -19 -27 -47 -59 -61 -72
l-26 -24 0 71 0 72 -50 0 -50 0 2 -177z"/>
<path d="M1515 2883 c-15 -43 -45 -122 -66 -177 -22 -54 -39 -100 -39 -102 0
-2 22 -4 50 -4 45 0 50 3 56 25 6 23 11 25 60 25 30 0 57 1 62 1 4 1 13 -10
20 -25 12 -23 19 -26 62 -26 l50 0 -22 53 c-19 47 -45 116 -95 252 -19 49 -20
50 -64 53 l-46 3 -28 -78z m94 -92 c19 -59 15 -71 -24 -71 -19 0 -35 3 -35 6
0 3 7 31 16 61 17 58 24 59 43 4z"/>
<path d="M1812 2923 l3 -38 78 -3 c42 -2 77 -5 77 -8 0 -3 -36 -50 -80 -103
-67 -83 -80 -104 -80 -135 l0 -36 140 0 140 0 0 40 0 40 -85 0 c-47 0 -85 3
-85 6 0 3 36 49 80 102 80 96 98 128 86 157 -4 12 -30 15 -141 15 l-136 0 3
-37z"/>
<path d="M2200 2789 c-36 -95 -66 -176 -68 -181 -2 -4 19 -8 47 -8 46 0 51 2
57 25 6 23 10 25 70 25 60 0 65 -2 74 -25 8 -22 16 -25 56 -25 52 0 52 2 20
85 -8 22 -35 92 -59 155 l-44 115 -44 3 -45 3 -64 -172z m124 21 c3 -16 9 -43
12 -60 6 -29 5 -30 -30 -30 -20 0 -36 3 -36 7 0 17 34 113 41 113 4 0 9 -13
13 -30z"/>
<path d="M2530 2780 l0 -180 50 0 50 0 0 43 c0 34 6 49 25 67 29 27 22 32 87
-62 32 -46 35 -48 81 -48 26 0 47 2 47 4 0 3 -29 44 -65 92 -36 48 -65 95 -65
104 0 9 27 49 60 88 l61 72 -53 0 -53 0 -55 -69 c-30 -39 -58 -70 -62 -70 -5
-1 -8 31 -8 69 l0 70 -50 0 -50 0 0 -180z"/>
<path d="M2922 2783 l3 -178 47 -3 47 -3 3 73 3 73 50 0 50 0 3 -72 3 -73 49
0 50 0 0 180 0 180 -50 0 -50 0 0 -70 0 -70 -55 0 -55 0 0 70 0 70 -50 0 -50
0 2 -177z"/>
<path d="M3290 2780 l0 -180 45 0 44 0 3 98 c3 110 10 107 48 -26 21 -72 22
-73 53 -70 30 3 32 6 62 98 l30 95 3 -98 3 -98 47 3 47 3 3 178 2 177 -57 0
-58 0 -34 -100 c-35 -101 -47 -128 -54 -120 -2 3 -21 53 -42 113 l-38 107 -53
0 -54 0 0 -180z"/>
<path d="M3730 2956 c0 -3 27 -53 60 -113 57 -102 60 -111 60 -175 l0 -68 50
0 50 0 0 66 c0 61 4 72 60 174 33 60 60 111 60 114 0 3 -22 6 -49 6 l-49 0
-32 -65 c-18 -36 -35 -65 -39 -65 -4 0 -21 29 -39 65 l-32 65 -50 0 c-27 0
-50 -2 -50 -4z"/>
<path d="M4174 2941 c-72 -44 -63 -143 15 -174 23 -10 54 -17 70 -17 16 0 39
-9 52 -20 l24 -20 -24 -20 c-31 -27 -57 -25 -83 5 -17 19 -31 25 -65 25 -47 0
-54 -12 -31 -53 24 -46 68 -67 139 -67 94 0 152 41 152 110 0 61 -36 91 -124
104 -61 9 -88 28 -73 53 16 26 60 28 81 4 24 -28 103 -30 103 -3 0 25 -27 60
-60 77 -42 22 -138 19 -176 -4z"/>
<path d="M1800 2415 c0 -128 1 -135 20 -135 19 0 20 7 20 135 0 128 -1 135
-20 135 -19 0 -20 -7 -20 -135z"/>
<path d="M1186 2525 c-44 -15 -39 -11 -60 -52 -30 -60 -12 -158 33 -183 32
-17 125 -9 129 11 2 12 -7 15 -47 15 -61 -1 -80 19 -81 84 0 67 20 90 79 90
34 0 51 5 55 15 4 10 -3 17 -22 21 -15 3 -32 7 -37 9 -6 1 -28 -3 -49 -10z"/>
<path d="M1370 2452 c-16 -13 -24 -32 -27 -69 -5 -45 -2 -55 20 -77 37 -37
107 -37 136 0 31 39 29 107 -4 139 -30 31 -92 34 -125 7z m90 -32 c41 -41 9
-119 -43 -106 -21 5 -27 13 -28 34 -4 86 26 117 71 72z"/>
<path d="M1597 2463 c-4 -3 -7 -12 -7 -19 0 -10 11 -12 43 -8 36 5 45 3 51
-11 9 -25 -1 -35 -39 -35 -47 0 -65 -9 -76 -38 -15 -40 12 -72 61 -72 21 0 42
5 46 11 4 8 9 8 17 0 6 -6 19 -11 29 -11 34 0 20 160 -15 182 -15 10 -101 10
-110 1z m89 -108 c9 -21 -14 -45 -43 -45 -31 0 -42 29 -18 46 25 18 54 18 61
-1z"/>
</g>
</svg>
